<svg width="48" height="48" viewBox="0 0 48 48" fill="none" xmlns="http://www.w3.org/2000/svg">
<path d="M20.9677 0.176403C19.3496 0.837328 1.82373 8.66586 1.82373 8.72284C1.82373 8.76842 3.58999 9.58888 5.75509 10.5461L9.68645 12.2896L19.7712 7.81122C25.3207 5.36124 29.8218 3.3101 29.7649 3.26451C29.7193 3.21893 28.1012 2.47824 26.1754 1.6236C22.301 -0.0856867 21.9022 -0.199639 20.9677 0.176403Z" fill="#73C845"/>
<path d="M22.7112 9.01958C17.1731 11.4696 12.6492 13.4979 12.6492 13.5435C12.6492 13.6688 21.7882 17.6458 22.0047 17.6116C22.3009 17.566 42.0489 8.82586 42.0489 8.7347C42.0489 8.68912 34.1976 5.15659 32.8188 4.58683C32.7846 4.56404 28.2379 6.5696 22.7112 9.01958Z" fill="#73C845"/>
<path d="M0 22.7279C0 30.83 0.045581 35.0462 0.125348 35.3311C0.398834 36.3339 0.296276 36.2769 10.5406 40.8236C15.7482 43.1254 20.1696 45.0854 20.3747 45.1652L20.7393 45.3247L20.7166 32.4937L20.6824 19.6626L10.5634 15.1843C5.00251 12.7115 0.353253 10.6604 0.227905 10.6262C0 10.5578 0 10.6148 0 22.7279Z" fill="#73C845"/>
<path d="M33.5016 15.0702C27.9521 17.5315 23.3484 19.5941 23.2686 19.6511C23.1547 19.7194 23.1319 22.2834 23.1547 32.5163L23.1889 45.3018L24.4309 44.7434C25.1147 44.4357 25.6958 44.1622 25.7186 44.1394C25.7528 44.1167 25.4907 43.6267 25.1374 43.0455C24.4651 41.9174 23.9295 40.6639 23.5649 39.2851C23.2344 38.0544 23.1547 35.2625 23.4168 33.8723C24.203 29.6447 26.8923 26.0894 30.6983 24.2433C32.8292 23.2064 34.7892 22.8075 37.1366 22.9101C39.2903 23.0127 41.2845 23.5824 43.0052 24.5852C43.4268 24.8359 43.8029 25.041 43.8256 25.041C43.8484 25.041 43.8712 21.782 43.8712 17.805C43.8712 12.0846 43.837 10.569 43.7345 10.5804C43.6547 10.5804 39.051 12.6088 33.5016 15.0702Z" fill="#73C845"/>
<path d="M35.3255 25.2235C33.639 25.4856 32.5336 25.8275 31.2574 26.5226C28.3744 28.0723 26.4144 30.7388 25.7307 34.0434C25.423 35.5248 25.4914 37.6329 25.913 39.1143C26.9728 42.8747 29.9127 45.7691 33.7301 46.8175C34.5506 47.0454 34.9608 47.0796 36.465 47.0796C38.368 47.0796 39.1315 46.9542 40.5559 46.3959C45.1596 44.5726 48.0198 39.7752 47.4158 34.8639C46.8802 30.5223 43.9517 26.9898 39.8038 25.6907C38.4364 25.2577 36.4878 25.0526 35.3255 25.2235ZM42.117 32.9495C42.4247 33.2572 42.5045 33.4281 42.5045 33.7699C42.5045 34.1916 42.3677 34.3397 39.291 37.4392C37.5134 39.2169 35.918 40.7438 35.7471 40.835C35.1431 41.1541 34.8241 40.9717 33.0692 39.2397C31.3827 37.5873 31.1092 37.2341 31.1092 36.7099C31.1092 36.3111 31.7815 35.6388 32.1918 35.6388C32.6704 35.6388 32.9097 35.8097 34.1632 37.0404L35.3255 38.2027L38.0945 35.445C39.6101 33.9409 40.9319 32.676 41.0231 32.6418C41.4447 32.4937 41.7524 32.5848 42.117 32.9495Z" fill="#73C845"/>
</svg>
