<svg width="46" height="46" viewBox="0 0 46 46" fill="none" xmlns="http://www.w3.org/2000/svg">
<path d="M0 35.1387V22.9998H46V35.1387C46 36.0172 45.6872 36.7692 45.0616 37.3948C44.4361 38.0204 43.684 38.3332 42.8056 38.3332H3.19443C2.31597 38.3332 1.56395 38.0204 0.938379 37.3948C0.312793 36.7692 0 36.0172 0 35.1387V35.1387ZM12.7778 30.6665V33.222H20.4444V30.6665H12.7778ZM5.11111 30.6665V33.222H10.2222V30.6665H5.11113H5.11111ZM42.8056 7.6665C43.684 7.6665 44.4361 7.97929 45.0616 8.60486C45.6872 9.23044 46 9.98248 46 10.861V15.3332H0V10.8609C0 9.98247 0.312793 9.23044 0.938379 8.60486C1.56395 7.97929 2.31597 7.6665 3.19443 7.6665H42.8056Z" fill="#73C845"/>
</svg>
