<svg width="58" height="58" viewBox="0 0 58 58" fill="none" xmlns="http://www.w3.org/2000/svg">
<path d="M24.1666 10.8748H33.8332C35.2832 10.8748 36.2499 9.90817 36.2499 8.45817C36.2499 7.00817 35.2832 6.0415 33.8332 6.0415H24.1666C22.7166 6.0415 21.7499 7.00817 21.7499 8.45817C21.7499 9.90817 22.7166 10.8748 24.1666 10.8748ZM44.2249 20.7832L46.3999 18.6082C47.3666 17.6415 47.3666 16.1915 46.3999 15.2248C45.4332 14.2582 43.9832 14.2582 43.0166 15.2248L40.8416 17.3998C33.8332 11.8415 24.1666 11.8415 17.1582 17.3998L14.9832 15.2248C14.0166 14.2582 12.5666 14.2582 11.5999 15.2248C10.6332 16.1915 10.6332 17.6415 11.5999 18.6082L13.7749 20.7832C7.2499 29.2415 8.6999 41.3248 17.1582 47.8498C25.6166 54.3748 37.6999 52.9248 44.2249 44.4665C49.7832 37.4582 49.7832 27.7915 44.2249 20.7832ZM33.1082 35.0415C32.1416 36.4915 30.6916 37.4582 28.9999 37.4582C26.3416 37.4582 24.1666 35.2832 24.1666 32.6248C24.1666 30.9332 25.1332 29.2415 26.5832 28.5165V22.9582C26.5832 21.5082 27.5499 20.5415 28.9999 20.5415C30.4499 20.5415 31.4166 21.5082 31.4166 22.9582V28.5165C33.8332 29.7248 34.5582 32.6248 33.1082 35.0415Z" fill="#73C845"/>
</svg>
