<svg width="34" height="44" viewBox="0 0 34 44" fill="none" xmlns="http://www.w3.org/2000/svg">
<path d="M2.54432 0.171913C1.53003 0.541527 0.765016 1.22918 0.275062 2.22628L0 2.7936V22.005V41.2163L0.275062 41.7836C0.773612 42.8065 1.54722 43.4856 2.5873 43.838C3.08585 44.0099 3.31794 44.0099 16.8905 43.9927L30.6866 43.9669L31.2883 43.6747C32.0791 43.2879 32.7582 42.6088 33.145 41.818L33.4372 41.2163L33.463 27.0506L33.4802 12.8935H29.0792C26.6552 12.8935 24.3774 12.8506 24.0335 12.8076C22.2628 12.5755 20.9047 11.2174 20.6726 9.44666C20.6297 9.10283 20.5867 6.82497 20.5867 4.40099V-3.8147e-06H11.8019C3.34372 0.00859451 2.9913 0.00859451 2.54432 0.171913ZM25.0306 18.326C25.4003 18.5323 25.6581 18.9793 25.6581 19.4263C25.6581 19.8732 25.4518 20.2428 25.0564 20.4835L24.7556 20.6726H16.7186C8.83637 20.6726 8.67305 20.6726 8.39799 20.5007C8.01118 20.2686 7.7791 19.8732 7.7791 19.4349C7.7791 18.8074 8.14012 18.369 8.7676 18.2143C8.90513 18.1799 12.5669 18.1627 16.8905 18.1627C24.1625 18.1799 24.7728 18.1885 25.0306 18.326ZM25.0306 23.4834C25.4003 23.6897 25.6581 24.1367 25.6581 24.5837C25.6581 25.0306 25.4518 25.4003 25.0564 25.6409L24.7556 25.83H16.7186C8.83637 25.83 8.67305 25.83 8.39799 25.6581C8.01118 25.426 7.7791 25.0306 7.7791 24.5923C7.7791 23.9648 8.14012 23.5264 8.7676 23.3717C8.90513 23.3373 12.5669 23.3201 16.8905 23.3201C24.1625 23.3373 24.7728 23.3459 25.0306 23.4834ZM25.0306 28.6408C25.4003 28.8471 25.6581 29.2941 25.6581 29.7411C25.6581 30.1881 25.4518 30.5577 25.0564 30.7984L24.7556 30.9875H16.7186C8.83637 30.9875 8.67305 30.9875 8.39799 30.8155C8.01118 30.5835 7.7791 30.1881 7.7791 29.7497C7.7791 29.1222 8.14012 28.6838 8.7676 28.5291C8.90513 28.4947 12.5669 28.4775 16.8905 28.4775C24.1625 28.4947 24.7728 28.5033 25.0306 28.6408ZM19.8732 33.7982C20.6984 34.2538 20.707 35.4744 19.8818 35.973C19.6068 36.1363 19.4434 36.1449 14.1399 36.1449C8.83637 36.1449 8.67305 36.1363 8.39799 35.973C8.01118 35.7409 7.7791 35.3455 7.7791 34.9071C7.7791 34.2796 8.13152 33.8412 8.7676 33.6865C8.90513 33.6521 11.4065 33.6263 14.3118 33.6349C19.1426 33.6521 19.624 33.6607 19.8732 33.7982Z" fill="#73C845"/>
<path d="M23.1653 5.06265C23.1653 9.30892 23.1739 9.48943 23.3372 9.75589C23.6982 10.3404 23.5779 10.3232 28.4344 10.2974L32.7925 10.2716L27.9789 5.45805L23.1653 0.644465V5.06265Z" fill="#73C845"/>
</svg>
