<svg width="56" height="56" viewBox="0 0 56 56" fill="none" xmlns="http://www.w3.org/2000/svg">
<path d="M43.1485 12.2709C41.6974 12.2709 40.4688 13.4513 40.4688 14.9021V15.8209C40.4688 16.0239 40.3881 16.2187 40.2446 16.3623C40.101 16.5058 39.9062 16.5865 39.7032 16.5865C39.5001 16.5865 39.3054 16.5058 39.1618 16.3623C39.0182 16.2187 38.9376 16.0239 38.9376 15.8209V11.4529C38.9376 10.7567 38.661 10.089 38.1687 9.59673C37.6764 9.10445 37.0087 8.82789 36.3126 8.82789C35.6164 8.82789 34.9487 9.10445 34.4564 9.59673C33.9641 10.089 33.6876 10.7567 33.6876 11.4529V14.8499C33.6876 15.0529 33.6069 15.2477 33.4633 15.3912C33.3197 15.5348 33.125 15.6155 32.9219 15.6155C32.7189 15.6155 32.5241 15.5348 32.3806 15.3912C32.237 15.2477 32.1563 15.0529 32.1563 14.8499V8.39192C32.1563 7.69572 31.8797 7.02805 31.3875 6.53576C30.8952 6.04348 30.2275 5.76692 29.5313 5.76692C28.8351 5.76692 28.1674 6.04348 27.6751 6.53576C27.1829 7.02805 26.9063 7.69572 26.9063 8.39192V13.8796C26.9063 14.0826 26.8256 14.2774 26.6821 14.421C26.5385 14.5646 26.3437 14.6452 26.1407 14.6452C25.9376 14.6452 25.7429 14.5646 25.5993 14.421C25.4557 14.2774 25.3751 14.0826 25.3751 13.8796V7.03272C25.3751 6.33652 25.0985 5.66884 24.6062 5.17656C24.1139 4.68428 23.4462 4.40771 22.7501 4.40771C22.0539 4.40771 21.3862 4.68428 20.8939 5.17656C20.4016 5.66884 20.1251 6.33652 20.1251 7.03272V24.9204C20.1782 24.989 20.2071 25.0732 20.2071 25.1599C20.2071 25.2466 20.1782 25.3309 20.1251 25.3994V41.7812H45.8282V14.9021C45.8282 13.4513 44.5995 12.2709 43.1485 12.2709ZM14.0497 22.4715C13.2923 22.4715 12.5518 22.6959 11.9219 23.1166C11.292 23.5372 10.8009 24.1351 10.5106 24.8347C10.2204 25.5344 10.1441 26.3043 10.2913 27.0473C10.4386 27.7903 10.8028 28.473 11.3379 29.0091L18.5938 36.2696V25.438L16.7531 23.5932C16.3992 23.2365 15.978 22.9537 15.5139 22.7612C15.0498 22.5686 14.5521 22.4702 14.0497 22.4715Z" fill="#73C845"/>
<path d="M45.8281 43.3125H20.125V51.625H45.8281V43.3125Z" fill="#73C845"/>
</svg>
