<svg width="45" height="45" viewBox="0 0 45 45" fill="none" xmlns="http://www.w3.org/2000/svg">
<g clip-path="url(#clip0_131_194)">
<path d="M32.0604 0.985622L0.985608 32.0649C0.354177 32.7001 0.000134684 33.5596 0.000978066 34.4553C0.00182145 35.351 0.357482 36.2098 0.990108 36.8439L8.15636 44.0146C8.79069 44.6467 9.64944 45.002 10.5449 45.0028C11.4404 45.0037 12.2998 44.65 12.9354 44.0191L44.0146 12.9399C44.6457 12.3043 44.9998 11.4449 44.9998 10.5492C44.9998 9.65357 44.6457 8.79422 44.0146 8.15862L36.8461 0.985622C36.2097 0.354271 35.3497 0 34.4532 0C33.5568 0 32.6967 0.354271 32.0604 0.985622ZM8.84036 34.4521L7.13261 36.1599L2.86661 31.8916L4.57436 30.1839L8.84036 34.4521ZM15.6714 34.4521L13.9636 36.1599L6.27986 28.4761L7.98761 26.7661L15.6714 34.4521ZM15.6714 27.6211L13.9636 29.3289L9.69311 25.0629L11.4031 23.3529L15.6714 27.6211ZM19.0869 24.2056L17.3791 25.9134L13.1131 21.6474L14.8209 19.9374L19.0869 24.2056ZM25.9156 24.2056L24.2079 25.9134L16.5264 18.2319L18.2341 16.5241L25.9156 24.2056ZM25.9156 17.3769L24.2079 19.0846L19.9419 14.8186L21.6496 13.1109L25.9156 17.3769ZM29.3311 13.9636L27.6234 15.6714L23.3551 11.4031L25.0629 9.69537L29.3311 13.9636ZM36.1621 13.9636L34.4521 15.6714L26.7706 7.98762L28.4784 6.27762L36.1621 13.9636ZM36.1599 7.13487L34.4521 8.84262L30.1861 4.57212L31.8939 2.86662L36.1599 7.13487Z" fill="#73C845"/>
</g>
<defs>
<clipPath id="clip0_131_194">
<rect width="45" height="45" fill="white"/>
</clipPath>
</defs>
</svg>
