<svg width="15" height="24" viewBox="0 0 15 24" fill="none" xmlns="http://www.w3.org/2000/svg">
<path d="M12.931 0H1.72414C1.26687 0 0.828327 0.19863 0.504988 0.552194C0.18165 0.905757 0 1.38529 0 1.88531V21.681C0 22.181 0.18165 22.6606 0.504988 23.0141C0.828327 23.3677 1.26687 23.5663 1.72414 23.5663H12.931C13.3883 23.5663 13.8268 23.3677 14.1502 23.0141C14.4735 22.6606 14.6552 22.181 14.6552 21.681V1.88531C14.6552 1.38529 14.4735 0.905757 14.1502 0.552194C13.8268 0.19863 13.3883 0 12.931 0ZM3.01724 14.1398C3.18711 14.1399 3.35531 14.1765 3.51222 14.2477C3.66914 14.3188 3.81171 14.423 3.93178 14.5544C4.05186 14.6858 4.14709 14.8418 4.21205 15.0134C4.277 15.185 4.3104 15.369 4.31034 15.5547C4.31029 15.7405 4.27677 15.9244 4.21172 16.096C4.14666 16.2676 4.05133 16.4235 3.93117 16.5548C3.81102 16.6861 3.66839 16.7902 3.51143 16.8612C3.35447 16.9322 3.18625 16.9688 3.01638 16.9687C2.67331 16.9686 2.34434 16.8194 2.10184 16.5541C1.85933 16.2887 1.72316 15.9289 1.72328 15.5538C1.72339 15.1786 1.85978 14.8189 2.10245 14.5538C2.34511 14.2886 2.67417 14.1397 3.01724 14.1398ZM1.72414 10.8405C1.72425 10.4654 1.86064 10.1057 2.10331 9.84049C2.34598 9.57531 2.67504 9.42641 3.0181 9.42654C3.36117 9.42666 3.69014 9.5758 3.93264 9.84115C4.17515 10.1065 4.31132 10.4663 4.31121 10.8415C4.31109 11.2166 4.1747 11.5763 3.93203 11.8415C3.68937 12.1067 3.36031 12.2556 3.01724 12.2554C2.67417 12.2553 2.3452 12.1062 2.1027 11.8408C1.8602 11.5755 1.72402 11.2157 1.72414 10.8405ZM7.32759 21.681H3.01724C2.67429 21.681 2.34538 21.5321 2.10288 21.2669C1.86038 21.0017 1.72414 20.6421 1.72414 20.2671C1.72414 19.892 1.86038 19.5324 2.10288 19.2672C2.34538 19.002 2.67429 18.8531 3.01724 18.8531H7.32759C7.67054 18.8531 7.99944 19.002 8.24195 19.2672C8.48445 19.5324 8.62069 19.892 8.62069 20.2671C8.62069 20.6421 8.48445 21.0017 8.24195 21.2669C7.99944 21.5321 7.67054 21.681 7.32759 21.681ZM7.32759 16.9678C7.15772 16.9677 6.98952 16.9311 6.8326 16.8599C6.67569 16.7888 6.53312 16.6845 6.41305 16.5531C6.29297 16.4218 6.19774 16.2658 6.13278 16.0942C6.06783 15.9225 6.03443 15.7386 6.03448 15.5528C6.03454 15.3671 6.06805 15.1832 6.13311 15.0116C6.19817 14.84 6.2935 14.6841 6.41365 14.5528C6.53381 14.4215 6.67644 14.3174 6.8334 14.2464C6.99036 14.1753 7.15858 14.1388 7.32845 14.1389C7.67151 14.139 8.00049 14.2881 8.24299 14.5535C8.48549 14.8188 8.62167 15.1786 8.62155 15.5538C8.62144 15.9289 8.48504 16.2886 8.24238 16.5538C7.99971 16.819 7.67065 16.9679 7.32759 16.9678ZM7.32759 12.2545C6.98452 12.2544 6.65555 12.1052 6.41305 11.8399C6.17054 11.5745 6.03437 11.2147 6.03448 10.8396C6.0346 10.4644 6.17099 10.1047 6.41365 9.83954C6.65632 9.57437 6.98538 9.42547 7.32845 9.42559C7.67151 9.42572 8.00049 9.57486 8.24299 9.84021C8.48549 10.1056 8.62167 10.4654 8.62155 10.8405C8.62144 11.2157 8.48504 11.5754 8.24238 11.8405C7.99971 12.1057 7.67065 12.2546 7.32759 12.2545ZM11.6379 21.681C11.2949 21.6809 10.9659 21.5318 10.7234 21.2664C10.4809 21.0011 10.3447 20.6412 10.3448 20.2661C10.3449 19.891 10.4813 19.5313 10.724 19.2661C10.9667 19.0009 11.2957 18.852 11.6388 18.8521C11.8087 18.8522 11.9769 18.8888 12.1338 18.96C12.2907 19.0311 12.4333 19.1354 12.5533 19.2667C12.6734 19.3981 12.7686 19.5541 12.8336 19.7257C12.8986 19.8974 12.932 20.0813 12.9319 20.2671C12.9318 20.4528 12.8983 20.6367 12.8333 20.8083C12.7682 20.9799 12.6729 21.1358 12.5527 21.2671C12.4326 21.3984 12.2899 21.5025 12.133 21.5735C11.976 21.6446 11.8078 21.6811 11.6379 21.681ZM11.6379 16.9678C11.4681 16.9677 11.2999 16.9311 11.1429 16.8599C10.986 16.7888 10.8435 16.6845 10.7234 16.5531C10.6033 16.4218 10.5081 16.2658 10.4431 16.0942C10.3782 15.9225 10.3448 15.7386 10.3448 15.5528C10.3449 15.3671 10.3784 15.1832 10.4435 15.0116C10.5085 14.84 10.6038 14.6841 10.724 14.5528C10.8442 14.4215 10.9868 14.3174 11.1437 14.2464C11.3007 14.1753 11.4689 14.1388 11.6388 14.1389C11.9819 14.139 12.3108 14.2881 12.5533 14.5535C12.7958 14.8188 12.932 15.1786 12.9319 15.5538C12.9318 15.9289 12.7954 16.2886 12.5527 16.5538C12.3101 16.819 11.981 16.9679 11.6379 16.9678ZM11.6379 12.2545C11.2949 12.2544 10.9659 12.1052 10.7234 11.8399C10.4809 11.5745 10.3447 11.2147 10.3448 10.8396C10.3449 10.4644 10.4813 10.1047 10.724 9.83954C10.9667 9.57437 11.2957 9.42547 11.6388 9.42559C11.9819 9.42572 12.3108 9.57486 12.5533 9.84021C12.7958 10.1056 12.932 10.4654 12.9319 10.8405C12.9318 11.2157 12.7954 11.5754 12.5527 11.8405C12.3101 12.1057 11.981 12.2546 11.6379 12.2545ZM12.931 5.65592C12.931 6.15594 12.7494 6.63547 12.426 6.98904C12.1027 7.3426 11.6642 7.54123 11.2069 7.54123H3.44828C2.99101 7.54123 2.55247 7.3426 2.22913 6.98904C1.90579 6.63547 1.72414 6.15594 1.72414 5.65592V3.77061C1.72414 3.2706 1.90579 2.79106 2.22913 2.4375C2.55247 2.08394 2.99101 1.88531 3.44828 1.88531H11.2069C11.6642 1.88531 12.1027 2.08394 12.426 2.4375C12.7494 2.79106 12.931 3.2706 12.931 3.77061V5.65592Z" fill="#73C845"/>
</svg>
