<svg width="96" height="43" viewBox="0 0 96 43" fill="none" xmlns="http://www.w3.org/2000/svg">
<path d="M88.6708 42.0209C90.5274 42.0209 92.3623 42.2182 94.1152 40.4653C95.7933 38.7872 95.6708 36.8774 95.6708 35.0209V24.5209C95.6708 22.6644 94.9333 20.8839 93.6206 19.5711C92.3078 18.2584 90.5274 17.5209 88.6708 17.5209H53.6708C51.8143 17.5209 50.0338 18.2584 48.7211 19.5711C47.4083 20.8839 46.6708 22.6644 46.6708 24.5209V35.0209C46.6708 36.8774 46.1707 38.021 48.1707 40.521C49.8599 42.2102 51.8143 42.0209 53.6708 42.0209H88.6708ZM46.6708 13V7.02089C46.6708 5.16437 46.356 3.3357 48.1708 1.52089C49.9856 -0.293929 51.8143 0.0208866 53.6708 0.0208866H66.2218C67.6134 0.0214931 68.9478 0.574561 69.9318 1.55855L74.8832 6.50755C75.2098 6.83655 75.6555 7.02089 76.1198 7.02089H88.6708C90.5274 7.02089 92.4923 7.09132 94.1152 8.57649C95.6708 10 95.6708 12.1644 95.6708 14.0209V16.6949C93.7478 14.9697 91.2543 14.0172 88.6708 14.0209H53.6708C51.0873 14.0172 48.5939 11.2748 46.6708 13Z" fill="#F1FAEC"/>
<path d="M65.6132 42.0209C67.4697 42.0209 69.3047 42.2182 71.0576 40.4653C72.7357 38.7872 72.6132 36.8774 72.6132 35.0209V24.5209C72.6132 22.6644 71.8757 20.8839 70.563 19.5711C69.2502 18.2584 67.4697 17.5209 65.6132 17.5209H30.6132C28.7567 17.5209 26.9762 18.2584 25.6635 19.5711C24.3507 20.8839 23.6132 22.6644 23.6132 24.5209V35.0209C23.6132 36.8774 23.113 38.021 25.1131 40.521C26.8023 42.2102 28.7567 42.0209 30.6132 42.0209H65.6132ZM23.0576 12L23.6132 7.02089C23.6132 5.16437 23.2984 3.3357 25.1132 1.52089C26.9279 -0.293929 28.7567 0.0208866 30.6132 0.0208866H43.1642C44.5558 0.0214931 45.8902 0.574561 46.8742 1.55855L51.8255 6.50755C52.1522 6.83655 52.5979 7.02089 53.0622 7.02089H65.6132C67.4697 7.02089 69.4346 7.09132 71.0576 8.57649C72.6132 10 72.6132 12.1644 72.6132 14.0209V16.6949C70.6902 14.9697 68.1967 14.0172 65.6132 14.0209H30.6132C28.0297 14.0172 24.9807 10.2748 23.0576 12Z" fill="#B9E3A2"/>
<path d="M42.0556 42.0209C43.9121 42.0209 45.7471 42.2182 47.5 40.4653C49.1781 38.7872 49.0556 36.8774 49.0556 35.0209V24.5209C49.0556 22.6644 48.3181 20.8839 47.0053 19.5711C45.6926 18.2584 43.9121 17.5209 42.0556 17.5209H7.0556C5.19908 17.5209 3.41861 18.2584 2.10585 19.5711C0.793098 20.8839 0.0555995 22.6644 0.0555995 24.5209V35.0209C0.0555995 36.8774 -0.444577 38.021 1.55548 40.521C3.24465 42.2102 5.19908 42.0209 7.0556 42.0209H42.0556ZM0.0555995 16.6949V7.02089C0.0555995 5.16437 -0.259253 3.3357 1.5556 1.52089C3.37033 -0.293929 5.19908 0.0208866 7.0556 0.0208866H19.6066C20.9982 0.0214931 22.3326 0.574561 23.3166 1.55855L28.2679 6.50755C28.5946 6.83655 29.0403 7.02089 29.5046 7.02089H42.0556C43.9121 7.02089 45.877 7.09132 47.5 8.57649C49.0556 10 49.0556 12.1644 49.0556 14.0209V16.6949C47.1325 14.9697 44.6391 14.0172 42.0556 14.0209H7.0556C4.47212 14.0172 1.97866 14.9697 0.0555995 16.6949Z" fill="#73C845"/>
</svg>
