<svg width="82" height="43" viewBox="0 0 82 43" fill="none" xmlns="http://www.w3.org/2000/svg">
<path d="M22.6457 1.14653C22.3011 1.2696 21.8416 1.47472 21.6201 1.606C21.0376 1.9342 0.656398 22.3154 0.410249 22.8159C0.11487 23.4066 0 23.8989 0 24.5963C0 25.302 0.123075 25.7779 0.475889 26.4261C0.615373 26.6804 3.1343 29.2568 8.40189 34.5244C16.0161 42.1386 16.131 42.2534 16.771 42.5652C17.3535 42.8524 17.5094 42.8852 18.1576 42.9181C18.9535 42.9427 19.4048 42.8524 20.0612 42.5324C20.3894 42.3765 22.5637 40.2432 30.8179 31.989C42.0095 20.781 41.4433 21.3964 41.8454 20.0918C42.0095 19.5667 42.0095 19.378 41.9931 11.5258L41.9684 3.49315L41.6649 2.87777C41.2874 2.11471 40.7459 1.58139 39.9746 1.22037L39.4249 0.957809L31.343 0.941402L23.2611 0.924992L22.6457 1.14653ZM32.6394 8.16998C35.0188 9.03151 35.7081 12.0591 33.9276 13.8396C32.0897 15.6775 28.9882 14.8899 28.2087 12.3873C27.7328 10.8366 28.4959 9.09715 30.0056 8.30947C30.662 7.96486 31.9009 7.89922 32.6394 8.16998Z" fill="#73C845"/>
<g opacity="0.5">
<path d="M42.6457 1.14653C42.3011 1.2696 41.8416 1.47472 41.6201 1.606C41.0376 1.9342 20.6564 22.3154 20.4102 22.8159C20.1149 23.4066 20 23.8989 20 24.5963C20 25.302 20.1231 25.7779 20.4759 26.4261C20.6154 26.6804 23.1343 29.2568 28.4019 34.5244C36.0161 42.1386 36.131 42.2534 36.771 42.5652C37.3535 42.8524 37.5094 42.8852 38.1576 42.9181C38.9535 42.9427 39.4048 42.8524 40.0612 42.5324C40.3894 42.3765 42.5637 40.2432 50.8179 31.989C62.0095 20.781 61.4433 21.3964 61.8454 20.0918C62.0095 19.5667 62.0095 19.378 61.9931 11.5258L61.9684 3.49315L61.6649 2.87777C61.2874 2.11471 60.7459 1.58139 59.9746 1.22037L59.4249 0.957809L51.343 0.941402L43.2611 0.924992L42.6457 1.14653ZM52.6394 8.16998C55.0188 9.03151 55.7081 12.0591 53.9276 13.8396C52.0897 15.6775 48.9882 14.8899 48.2087 12.3873C47.7328 10.8366 48.4959 9.09715 50.0056 8.30947C50.662 7.96486 51.9009 7.89922 52.6394 8.16998Z" fill="#73C845"/>
</g>
<g opacity="0.1">
<path d="M62.6457 1.14653C62.3011 1.2696 61.8416 1.47472 61.6201 1.606C61.0376 1.9342 40.6564 22.3154 40.4102 22.8159C40.1149 23.4066 40 23.8989 40 24.5963C40 25.302 40.1231 25.7779 40.4759 26.4261C40.6154 26.6804 43.1343 29.2568 48.4019 34.5244C56.0161 42.1386 56.131 42.2534 56.771 42.5652C57.3535 42.8524 57.5094 42.8852 58.1576 42.9181C58.9535 42.9427 59.4048 42.8524 60.0612 42.5324C60.3894 42.3765 62.5637 40.2432 70.8179 31.989C82.0095 20.781 81.4433 21.3964 81.8454 20.0918C82.0095 19.5667 82.0095 19.378 81.9931 11.5258L81.9684 3.49315L81.6649 2.87777C81.2874 2.11471 80.7459 1.58139 79.9746 1.22037L79.4249 0.957809L71.343 0.941402L63.2611 0.924992L62.6457 1.14653ZM72.6394 8.16998C75.0188 9.03151 75.7081 12.0591 73.9276 13.8396C72.0897 15.6775 68.9882 14.8899 68.2087 12.3873C67.7328 10.8366 68.4959 9.09715 70.0056 8.30947C70.662 7.96486 71.9009 7.89922 72.6394 8.16998Z" fill="#73C845"/>
</g>
</svg>
