<svg width="56" height="49" viewBox="0 0 56 49" fill="none" xmlns="http://www.w3.org/2000/svg">
<rect x="5.79077" width="8.90909" height="49" rx="4.45455" fill="#73C845"/>
<rect x="16.7" width="8.90909" height="49" rx="4.45455" fill="#73C845"/>
<rect x="27.6091" width="8.90909" height="49" rx="4.45455" fill="#73C845"/>
<rect x="38.5183" width="8.90909" height="49" rx="4.45455" fill="#73C845"/>
<rect y="38.3086" width="45.4364" height="4.00909" rx="1.33636" fill="#73C845"/>
<rect y="10.2451" width="47.6636" height="4.45455" rx="1.33636" fill="#73C845"/>
<path fill-rule="evenodd" clip-rule="evenodd" d="M6.79077 42.2739C7.08372 42.303 7.38085 42.3178 7.68145 42.3178H46.8815C51.8018 42.3178 55.7905 38.3291 55.7905 33.4088V19.1542C55.7905 14.2339 51.8018 10.2451 46.8815 10.2451H7.68145C7.38085 10.2451 7.08372 10.26 6.79077 10.2891V14.7887C7.07856 14.7303 7.37643 14.6997 7.68145 14.6997H46.8815C49.3416 14.6997 51.336 16.694 51.336 19.1542V33.4088C51.336 35.8689 49.3416 37.8633 46.8815 37.8633H7.68145C7.37643 37.8633 7.07856 37.8326 6.79077 37.7742V42.2739Z" fill="#73C845"/>
</svg>
