<svg width="11" height="15" viewBox="0 0 11 15" fill="none" xmlns="http://www.w3.org/2000/svg">
<path fill-rule="evenodd" clip-rule="evenodd" d="M4.7434 0.0445029C2.66299 0.331985 0.932701 1.69769 0.280484 3.56714C-0.287298 5.19446 -0.0114502 6.71481 1.28349 9.09563C2.05754 10.5188 2.99408 11.9022 4.29451 13.5435C4.83912 14.2309 5.48515 15 5.51785 15C5.53109 15 5.70678 14.7992 5.90829 14.5536C8.30639 11.6321 10.1262 8.71246 10.7355 6.80906C10.9666 6.08744 11.0013 5.87166 11.0002 5.16461C10.9994 4.61652 10.9883 4.47431 10.9241 4.1936C10.4675 2.19679 8.96185 0.685996 6.91027 0.166192C6.2692 0.00375182 5.39403 -0.0453938 4.7434 0.0445029ZM6.15097 3.02034C6.94485 3.24877 7.52839 3.80419 7.77852 4.56947C7.88771 4.90353 7.88758 5.42647 7.77822 5.75974C7.5083 6.58247 6.91023 7.12699 6.05353 7.33009C5.51378 7.45804 4.82846 7.36783 4.34826 7.10563C3.8575 6.83766 3.48792 6.4132 3.28009 5.87896C3.1982 5.6685 3.19105 5.61237 3.19085 5.18027C3.19066 4.74573 3.19761 4.6916 3.28343 4.45984C3.49206 3.89637 3.9293 3.42622 4.47775 3.17554C4.88367 2.99002 5.14943 2.93802 5.60603 2.95487C5.80876 2.96236 6.05025 2.99136 6.15097 3.02034Z" fill="#F3F3F3"/>
</svg>
