<svg width="42" height="49" viewBox="0 0 42 49" fill="none" xmlns="http://www.w3.org/2000/svg">
<path d="M21 37.3333C21 37.3333 35 24.066 35 14C35 10.287 33.525 6.72601 30.8995 4.10051C28.274 1.475 24.713 0 21 0C17.287 0 13.726 1.475 11.1005 4.10051C8.475 6.72601 7 10.287 7 14C7 24.066 21 37.3333 21 37.3333ZM21 21C19.1435 21 17.363 20.2625 16.0503 18.9497C14.7375 17.637 14 15.8565 14 14C14 12.1435 14.7375 10.363 16.0503 9.05025C17.363 7.7375 19.1435 7 21 7C22.8565 7 24.637 7.7375 25.9497 9.05025C27.2625 10.363 28 12.1435 28 14C28 15.8565 27.2625 17.637 25.9497 18.9497C24.637 20.2625 22.8565 21 21 21Z" fill="#73C845"/>
<ellipse cx="21" cy="45.5" rx="21" ry="3.5" fill="#73C845"/>
</svg>
