<svg width="42" height="44" viewBox="0 0 42 44" fill="none" xmlns="http://www.w3.org/2000/svg">
<path fill-rule="evenodd" clip-rule="evenodd" d="M14.4381 2.69323C14.438 2.19502 14.6061 1.71154 14.9148 1.32192C15.2236 0.932297 15.6547 0.65962 16.1376 0.548519C19.3377 -0.184322 22.6608 -0.182818 25.8602 0.552919C26.3435 0.663588 26.7752 0.93608 27.0843 1.32574C27.3935 1.7154 27.5619 2.19912 27.5619 2.69763V6.76048C27.5619 7.14661 27.663 7.52592 27.855 7.86031C28.047 8.1947 28.3231 8.47238 28.6556 8.66544C28.9881 8.8585 29.3653 8.96013 29.7493 8.96013C30.1332 8.96013 30.5104 8.85849 30.8429 8.66543L34.3448 6.6307C34.7744 6.38131 35.2755 6.28618 35.766 6.36092C36.2564 6.43566 36.7071 6.67584 37.0439 7.04204C39.2701 9.46434 40.9298 12.3563 41.9019 15.5065C42.0488 15.9829 42.0303 16.4954 41.8494 16.9598C41.6686 17.4242 41.3362 17.8131 40.9067 18.0626L37.4048 20.0951C37.0723 20.2882 36.7962 20.5658 36.6043 20.9002C36.4123 21.2346 36.3113 21.6139 36.3113 22C36.3113 22.3861 36.4123 22.7654 36.6043 23.0998C36.7962 23.4342 37.0723 23.7119 37.4048 23.905L40.9045 25.9353C41.3335 26.1847 41.6656 26.5732 41.8464 27.0371C42.0272 27.5011 42.046 28.013 41.8997 28.4892C40.9343 31.6437 39.2746 34.5391 37.0439 36.9602C36.7068 37.3261 36.256 37.5658 35.7656 37.6402C35.2752 37.7145 34.7742 37.619 34.3448 37.3694L30.8429 35.3346C30.5104 35.1416 30.1332 35.0399 29.7493 35.0399C29.3653 35.0399 28.9881 35.1416 28.6556 35.3346C28.3231 35.5277 28.047 35.8054 27.855 36.1397C27.663 36.4741 27.5619 36.8534 27.5619 37.2396V41.309C27.5614 41.8072 27.3928 42.2904 27.0837 42.6796C26.7745 43.0688 26.3432 43.341 25.8602 43.4515C22.6601 44.1843 19.337 44.1828 16.1376 43.4471C15.6547 43.336 15.2236 43.0634 14.9148 42.6737C14.6061 42.2841 14.438 41.8006 14.4381 41.3024V37.2396C14.4381 36.8534 14.337 36.4741 14.145 36.1397C13.953 35.8054 13.6769 35.5277 13.3444 35.3346C13.0119 35.1416 12.6347 35.0399 12.2507 35.0399C11.8668 35.0399 11.4896 35.1416 11.1571 35.3346L7.65522 37.3694C7.22561 37.6187 6.72446 37.7139 6.23401 37.6391C5.74356 37.5644 5.29293 37.3242 4.95608 36.958C3.84634 35.7509 2.87424 34.4228 2.0579 32.9985C1.23971 31.575 0.58235 30.064 0.0980659 28.4936C-0.0487741 28.0171 -0.0302587 27.5047 0.150575 27.0403C0.331408 26.5758 0.663823 26.187 1.09329 25.9375L4.59299 23.905C4.92548 23.7119 5.20157 23.4342 5.39353 23.0998C5.58549 22.7654 5.68655 22.3861 5.68655 22C5.68655 21.6139 5.58549 21.2346 5.39353 20.9002C5.20157 20.5658 4.92548 20.2882 4.59299 20.0951L1.09767 18.0648C0.668265 17.8157 0.335711 17.4274 0.154497 16.9634C-0.0267169 16.4994 -0.0458431 15.9873 0.100253 15.5109C1.06603 12.3571 2.72571 9.46252 4.95608 7.04204C5.2928 6.67637 5.74301 6.43652 6.23299 6.36179C6.72296 6.28706 7.22364 6.38187 7.65303 6.6307L11.1571 8.66543C11.4896 8.85849 11.8668 8.96013 12.2507 8.96013C12.6347 8.96013 13.0119 8.8585 13.3444 8.66544C13.6769 8.47238 13.953 8.1947 14.145 7.86031C14.337 7.52592 14.4381 7.14661 14.4381 6.76048V2.69103V2.69323ZM21 28.5991C22.7403 28.5991 24.4094 27.9039 25.64 26.6663C26.8706 25.4287 27.5619 23.7502 27.5619 22C27.5619 20.2498 26.8706 18.5713 25.64 17.3338C24.4094 16.0962 22.7403 15.4009 21 15.4009C19.2597 15.4009 17.5906 16.0962 16.36 17.3338C15.1294 18.5713 14.4381 20.2498 14.4381 22C14.4381 23.7502 15.1294 25.4287 16.36 26.6663C17.5906 27.9039 19.2597 28.5991 21 28.5991Z" fill="#73C845"/>
</svg>
