<svg width="14" height="15" viewBox="0 0 14 15" fill="none" xmlns="http://www.w3.org/2000/svg">
<path d="M5.79803 8.60271C4.46175 7.2664 4.16003 5.93009 4.09196 5.3947C4.07294 5.24666 4.12388 5.0982 4.22979 4.99304L5.31116 3.91211C5.47024 3.75314 5.49847 3.50538 5.37923 3.31469L3.65747 0.641109C3.52556 0.429957 3.25472 0.35375 3.03206 0.465139L0.268026 1.76693C0.0879717 1.85559 -0.0179341 2.0469 0.00250914 2.24656C0.147337 3.62245 0.747164 7.00474 4.07096 10.3288C7.39475 13.653 10.7765 14.2526 12.1531 14.3974C12.3527 14.4178 12.544 14.3119 12.6327 14.1319L13.9344 11.3678C14.0454 11.1456 13.9697 10.8755 13.7594 10.7433L11.0859 9.02199C10.8953 8.90263 10.6476 8.93066 10.4885 9.08958L9.40761 10.171C9.30245 10.2769 9.15399 10.3278 9.00596 10.3088C8.47058 10.2407 7.1343 9.93901 5.79803 8.60271Z" fill="#F3F3F3"/>
<path d="M11.1038 7.88158C10.8372 7.88158 10.621 7.66544 10.621 7.39881C10.6188 5.40005 8.99905 3.7803 7.00034 3.77804C6.73372 3.77804 6.51758 3.5619 6.51758 3.29527C6.51758 3.02864 6.73372 2.8125 7.00034 2.8125C9.53207 2.81529 11.5837 4.86702 11.5865 7.39881C11.5865 7.66544 11.3704 7.88158 11.1038 7.88158Z" fill="#F3F3F3"/>
<path d="M13.5176 7.88137C13.251 7.88137 13.0348 7.66523 13.0348 7.3986C13.0311 4.06731 10.3315 1.3677 7.00034 1.36398C6.73372 1.36398 6.51758 1.14783 6.51758 0.881207C6.51758 0.614581 6.73372 0.398438 7.00034 0.398438C10.8646 0.402695 13.9961 3.53428 14.0003 7.3986C14.0003 7.52664 13.9495 7.64943 13.8589 7.73997C13.7684 7.83051 13.6456 7.88137 13.5176 7.88137Z" fill="#F3F3F3"/>
</svg>
